# xmcd CD database file
#
# Track frame offsets:
#	150
#	17985
#	36603
#	52610
#	78625
#	96855
#	121505
#	143243
#	162958
#	180490
#
# Disc length: 2622 seconds
#
# Revision: 0
# Processed by: cddbd v1.5.1PL2 Copyright (c) Steve Scherf et al.
# Submitted via: CDex 1.51
#
DISCID=7a0a3c0a
DTITLE=Bobby Valentin - Rey Del Bajo
DYEAR=1974
DGENRE=Salsa
TTITLE0=Hay Craneo
TTITLE1=Arenas Del Desierto
TTITLE2=Guaraguao
TTITLE3=Mi Ritmo Es Bueno
TTITLE4=Codazos
TTITLE5=Cuando Te Vea
TTITLE6=Esperame En El Cielo
TTITLE7=La Vibora
TTITLE8=Aqui No Me Quedo
TTITLE9=Coco Seco
EXTD=YEAR: 1974
EXTT0=
EXTT1=
EXTT2=
EXTT3=
EXTT4=
EXTT5=
EXTT6=
EXTT7=
EXTT8=
EXTT9=
PLAYORDER=
